<svg xmlns="http://www.w3.org/2000/svg" xmlns:xlink="http://www.w3.org/1999/xlink" version="1.1" x="0px" y="0px" fill="#354766" viewBox="0 0 32 40" style="enable-background:new 0 0 32 32;" xml:space="preserve"><g><path d="M27.76273,11.76276c-2.33931,0-4.2372,1.89797-4.2372,4.23727s1.8979,4.2372,4.2372,4.2372   c2.33937,0,4.23727-1.8979,4.23727-4.2372S30.1021,11.76276,27.76273,11.76276z"/><path d="M16,11.76276c-2.3393,0-4.23727,1.89797-4.23727,4.23727S13.6607,20.23724,16,20.23724s4.23727-1.8979,4.23727-4.2372   S18.33931,11.76276,16,11.76276z"/><path d="M4.23727,20.23724c2.3393,0,4.2372-1.8979,4.2372-4.2372s-1.8979-4.23727-4.2372-4.23727   C1.8979,11.76276,0,13.66073,0,16.00003S1.8979,20.23724,4.23727,20.23724z"/></g></svg>