<svg xmlns="http://www.w3.org/2000/svg" data-name="Layer 1" viewBox="0 0 100 125" x="0px" y="0px" fill="#fff"><path d="M16.47,74.87a2.5,2.5,0,0,0-2.4,2.59A16.19,16.19,0,0,0,29.56,93h.63A16.07,16.07,0,0,0,45.76,81.09a24,24,0,0,1,2.14-5.51l.09-.15A31.63,31.63,0,0,1,59.57,63.84a32.16,32.16,0,1,0-42.79-46,2.5,2.5,0,1,0,4.12,2.83A26.91,26.91,0,0,1,40.74,9.12,27.14,27.14,0,0,1,57,59.54,36.63,36.63,0,0,0,43.63,73l-.09.15a28.77,28.77,0,0,0-2.6,6.64A11.1,11.1,0,0,1,29.75,88,11.31,11.31,0,0,1,19.06,77.27,2.5,2.5,0,0,0,16.47,74.87Z"/><path d="M33,48.44,21,55.75A2.5,2.5,0,1,0,23.6,60l12-7.3A10,10,0,0,0,28.46,34.3a11.72,11.72,0,0,1,.78-2.19,15.75,15.75,0,0,1,12.63-9l-.23-2.49L42,23.13a13.07,13.07,0,0,1,7.85,24.3c-7,4.12-12,10.85-15.35,20.58a2.5,2.5,0,1,0,4.72,1.64c3-8.68,7.2-14.38,13.18-17.92A18.07,18.07,0,0,0,41.55,18.15h-.15A20.77,20.77,0,0,0,24.73,30a16.91,16.91,0,0,0-.56,13.11l.66,1.75a2.5,2.5,0,1,0,4.68-1.75l-.66-1.75a11.67,11.67,0,0,1-.49-1.75,5,5,0,0,1,6.39,2A5,5,0,0,1,33,48.44Z"/><path d="M58.85,84A15.08,15.08,0,0,0,73.91,68.91a2.5,2.5,0,0,0-5,0A10.08,10.08,0,0,1,58.85,79a2.5,2.5,0,1,0,0,5Z"/><path d="M60.11,96A25.86,25.86,0,0,0,85.94,70.17a2.5,2.5,0,1,0-5,0A20.86,20.86,0,0,1,60.11,91a2.5,2.5,0,0,0,0,5Z"/></svg>